<svg width="25" height="27" viewBox="0 0 25 27" fill="none" xmlns="http://www.w3.org/2000/svg">
<path d="M22.1236 3.03643H20.7739V1.7306C20.7739 1.01239 20.1665 0.424767 19.4242 0.424767C18.6818 0.424767 18.0745 1.01239 18.0745 1.7306V3.03643H7.27684V1.7306C7.27684 1.01239 6.66947 0.424767 5.92714 0.424767C5.1848 0.424767 4.57743 1.01239 4.57743 1.7306V3.03643H3.22773C1.72956 3.03643 0.541817 4.21168 0.541817 5.6481L0.52832 23.9298C0.52832 24.6224 0.812721 25.2867 1.31896 25.7765C1.8252 26.2663 2.5118 26.5414 3.22773 26.5414H22.1236C23.6083 26.5414 24.823 25.3662 24.823 23.9298V5.6481C24.823 4.21168 23.6083 3.03643 22.1236 3.03643ZM22.1236 22.6239C22.1236 23.3422 21.5162 23.9298 20.7739 23.9298H4.57743C3.8351 23.9298 3.22773 23.3422 3.22773 22.6239V9.5656H22.1236V22.6239ZM5.92714 12.1773H8.62654V14.7889H5.92714V12.1773ZM11.326 12.1773H14.0254V14.7889H11.326V12.1773ZM16.7248 12.1773H19.4242V14.7889H16.7248V12.1773Z" fill="url(#paint0_linear)"/>
<defs>
<linearGradient id="paint0_linear" x1="-0.236365" y1="13.4831" x2="24.823" y2="13.4831" gradientUnits="userSpaceOnUse">
<stop stop-color="#1BD18E"/>
<stop offset="1" stop-color="#01AEAE"/>
</linearGradient>
</defs>
</svg>
