<svg width="51" height="51" viewBox="0 0 51 51" fill="none" xmlns="http://www.w3.org/2000/svg">
<path d="M22.7683 26.3852L23.8577 26.4111H24.9342L26.0107 26.3982L27.0871 26.3594L28.1636 26.3723L29.253 26.4111L30.3295 26.4369L31.406 26.4111L32.4824 26.4369L33.5719 26.3852L34.6483 26.3594H35.7248H36.8013H37.8777L38.9542 26.3723L40.0436 26.4111H41.1201L42.2095 26.3852L43.286 26.3465L44.3625 26.4369L45.4519 26.424H46.5284L47.6178 26.3465L48.7072 26.3852" stroke="#333333" stroke-linecap="round" stroke-linejoin="round"/>
<path d="M13.7156 10.2843L13.5859 11.2922L13.3654 12.2872L12.8985 13.1789L12.3408 14.0317L11.6275 14.7683L10.7585 15.2981L9.83771 15.6987L8.87797 16.0605L7.85338 16.1122L6.84176 16.0217L5.86905 15.7375L4.93525 15.3369L4.1052 14.7295L3.37891 14.0317L2.80826 13.1918L2.41917 12.2614L2.09494 11.2922L2.00415 10.2843L2.15978 9.27637L2.32839 8.28136L2.79529 7.37681L3.39188 6.54979L4.11817 5.83907L4.90931 5.19296L5.86905 4.83114L6.84176 4.52101L7.85338 4.41763L8.87797 4.52101L9.86365 4.81822L10.7975 5.21881L11.6016 5.85199L12.2889 6.57564L12.9374 7.36389L13.3006 8.32013L13.6507 9.26345L13.7156 10.2843Z" fill="#333333"/>
<path d="M13.7156 10.2843L13.5859 11.2922L13.3654 12.2872L12.8985 13.1789L12.3408 14.0317L11.6275 14.7683L10.7585 15.2981L9.83771 15.6987L8.87797 16.0605L7.85338 16.1122L6.84176 16.0217L5.86905 15.7375L4.93525 15.3369L4.1052 14.7295L3.37891 14.0317L2.80826 13.1918L2.41917 12.2614L2.09494 11.2922L2.00415 10.2843L2.15978 9.27637L2.32839 8.28136L2.79529 7.37681L3.39188 6.54979L4.11817 5.83907L4.90931 5.19296L5.86905 4.83114L6.84176 4.52101L7.85338 4.41763L8.87797 4.52101L9.86365 4.81822L10.7975 5.21881L11.6016 5.85199L12.2889 6.57564L12.9374 7.36389L13.3006 8.32013L13.6507 9.26345L13.7156 10.2843Z" stroke="#333333" stroke-linecap="round" stroke-linejoin="round"/>
<path d="M5.19464 10.5298L5.90796 11.2922L6.67316 12.0417L7.45133 11.2276L8.24247 10.4264L9.05954 9.65112L9.86365 8.84994L10.6678 8.04877" stroke="white" stroke-linecap="round" stroke-linejoin="round"/>
<path d="M22.7683 10.8787L23.8318 10.9045L24.8953 10.8916H25.9718L27.0353 10.8658L28.0988 10.8787L29.1623 10.9045L30.2258 10.9174L31.2893 10.9045L32.3657 10.9174L33.4292 10.8787L34.5057 10.8658H35.5692H36.6327H37.7091H38.7726L39.8491 10.9045H40.9256" stroke="#333333" stroke-linecap="round" stroke-linejoin="round"/>
<path d="M13.7156 25.7909L13.5859 26.7988L13.3654 27.7938L12.8985 28.6855L12.3408 29.5383L11.6275 30.2749L10.7585 30.8047L9.83771 31.2053L8.87797 31.5671L7.85338 31.6188L6.84176 31.5283L5.86905 31.244L4.93525 30.8435L4.1052 30.2361L3.37891 29.5383L2.80826 28.6984L2.41917 27.768L2.09494 26.7988L2.00415 25.7909L2.15978 24.783L2.32839 23.788L2.79529 22.8834L3.39188 22.0564L4.11817 21.3457L4.90931 20.6996L5.86905 20.3377L6.84176 20.0276L7.85338 19.9242L8.87797 20.0276L9.86365 20.3248L10.7975 20.7254L11.6016 21.3586L12.2889 22.0822L12.9374 22.8705L13.3006 23.8267L13.6507 24.77L13.7156 25.7909Z" fill="#333333"/>
<path d="M13.7156 25.7909L13.5859 26.7988L13.3654 27.7938L12.8985 28.6855L12.3408 29.5383L11.6275 30.2749L10.7585 30.8047L9.83771 31.2053L8.87797 31.5671L7.85338 31.6188L6.84176 31.5283L5.86905 31.244L4.93525 30.8435L4.1052 30.2361L3.37891 29.5383L2.80826 28.6984L2.41917 27.768L2.09494 26.7988L2.00415 25.7909L2.15978 24.783L2.32839 23.788L2.79529 22.8834L3.39188 22.0564L4.11817 21.3457L4.90931 20.6996L5.86905 20.3377L6.84176 20.0276L7.85338 19.9242L8.87797 20.0276L9.86365 20.3248L10.7975 20.7254L11.6016 21.3586L12.2889 22.0822L12.9374 22.8705L13.3006 23.8267L13.6507 24.77L13.7156 25.7909Z" stroke="#333333" stroke-linecap="round" stroke-linejoin="round"/>
<path d="M5.19464 26.0364L5.90796 26.7988L6.67316 27.5483L7.45133 26.7342L8.24247 25.933L9.05954 25.1577L9.86365 24.3565L10.6678 23.5554" stroke="white" stroke-linecap="round" stroke-linejoin="round"/>
<path d="M22.7683 40.6643L23.8577 40.6385H24.9342L26.0107 40.6514L27.0871 40.6902L28.1636 40.6773L29.253 40.6385L30.3295 40.6126L31.406 40.6385L32.4824 40.6126L33.5719 40.6643L34.6483 40.6902H35.7248H36.8013H37.8777L38.9542 40.6773L40.0436 40.6385H41.1201L42.2095 40.6643L43.286 40.7031L44.3625 40.6126L45.4519 40.6256H46.5284L47.6178 40.7031L48.7072 40.6643" stroke="#333333" stroke-linecap="round" stroke-linejoin="round"/>
<path d="M13.7156 41.2975L13.5859 42.3054L13.3654 43.3005L12.8985 44.1921L12.3408 45.0449L11.6275 45.7815L10.7585 46.3113L9.83771 46.7119L8.87797 47.0737L7.85338 47.1254L6.84176 47.035L5.86905 46.7507L4.93525 46.3501L4.1052 45.7427L3.37891 45.0449L2.80826 44.205L2.41917 43.2746L2.09494 42.3054L2.00415 41.2975L2.15978 40.2896L2.32839 39.2946L2.79529 38.39L3.39188 37.563L4.11817 36.8523L4.90931 36.2062L5.86905 35.8444L6.84176 35.5342L7.85338 35.4308L8.87797 35.5342L9.86365 35.8314L10.7975 36.232L11.6016 36.8652L12.2889 37.5889L12.9374 38.3771L13.3006 39.3333L13.6507 40.2767L13.7156 41.2975Z" stroke="#333333" stroke-linecap="round" stroke-linejoin="round"/>
</svg>
