<svg xmlns="http://www.w3.org/2000/svg" viewBox="0 0 411.64 378.25"><defs><style>.cls-1{fill:#f05253;}</style></defs><title>education</title><g id="Layer_2" data-name="Layer 2"><g id="Layer_1-2" data-name="Layer 1"><g id="MYlIt8"><path class="cls-1" d="M133.72,324.46a10.62,10.62,0,0,1-3-.48c-7.19-2.15-14.47-4.48-21.52-6.74q-5.89-1.89-11.79-3.75l-18.33-5.76C56,300.48,32.23,293,8.74,285.81c-4.41-1.35-7-3.06-8.74-5.81V3.58A9.08,9.08,0,0,1,7.29,0a20.08,20.08,0,0,1,6,1.12c32.39,10.35,65.4,20.6,97.32,30.51l30,9.31c3,1,6.11,1.87,9.17,2.79,6.5,2,13.21,4,19.69,6.25a17,17,0,0,0,5.71,1,18.75,18.75,0,0,0,5.76-1c24-7.61,48.49-15.19,72.15-22.53l32.32-10c10.07-3.14,20.3-6.37,30.19-9.5l18.92-6c1.24-.39,2.61-.74,4.2-1.07a12.88,12.88,0,0,1,2.6-.29c2.32,0,5.46.67,5.88,6.48.11,1.46.09,2.94.07,4.51,0,.59,0,1.18,0,1.77q0,80.18,0,160.35c0,.55,0,1.1,0,1.65a52.4,52.4,0,0,1-.14,5.48c-.34,3.48-2.4,5.69-5.64,6.06l-.32,0c-2.07,0-5.18-1.89-5.94-4.23a29.75,29.75,0,0,1-1.35-9c-.07-38.44-.07-77.53-.06-115.32V17l-3.6,1c-17.07,4.8-33.73,10.08-49.84,15.19-8,2.55-16.35,5.19-24.53,7.7C238.94,46.07,222.47,51.26,205,56.75l-22.84,7.19-2,.62V167.74c0,.67,0,1.34,0,2,0,1.81,0,3.53-.07,5.23-.3,5.16-2.42,6.4-5.5,6.67-.28,0-.55,0-.82,0-3.55,0-6.1-2.19-6.81-5.85a24.22,24.22,0,0,1-.23-5c0-.62,0-1.23,0-1.84q0-37.88,0-75.76V63.38L17.09,16.56l-1.16.85-.36.26a5.47,5.47,0,0,0-1,.79,3.92,3.92,0,0,0-1.26,2.68q-.09,116-.15,232.05v19.63l22.5,7.07,93,29.3,1.94.59c1.4.42,2.73.81,4,1.3,4.49,1.77,6.41,4.93,5.14,8.47C138.56,322.86,136.59,324.46,133.72,324.46Z"/><path class="cls-1" d="M260.43,378.25c-5.61,0-11.32-.08-16.84-.15l-4.33-.06a252.4,252.4,0,0,1-27.09-2.33l-6.59-.79c-9.48-1.1-19.1-2.57-28.41-4l-.67-.1c-8-1.23-9.65-3.13-9.67-11.33-.05-20,0-40.3,0-60,0-7.83,0-35.58,0-35.58l-9.28-2.89c-5.48-1.71-10.89-3.4-16.33-5.05-3.42-1-6.84-2-10.26-3.06-4.72-1.39-9.6-2.83-14.37-4.32-4.21-1.32-6.65-3.8-6.68-6.82s2.45-5.64,6.48-6.86c14.11-4.27,28.47-8.54,42.37-12.68q13.19-3.92,26.37-7.86l8.06-2.41c19.61-5.87,39.89-11.94,59.78-18.09a14.45,14.45,0,0,1,4.32-.75,12.65,12.65,0,0,1,3.77.61c16.25,5,32.82,9.82,48.85,14.51q11.32,3.32,22.64,6.65c18.56,5.49,37.41,11.12,55.64,16.56l6.94,2.07a17.28,17.28,0,0,1,1.7.65c.53.22,1.07.45,1.61.64,5.67,2,6,2.46,6.07,8q0,3.58.1,7.16c.15,9.78.3,19.88-.2,29.75-.49,9.68,1.89,18.77,7.28,27.78v5.37c-2.51,2.26-4.75,4.09-7.23,4.09a7.59,7.59,0,0,1-3.81-1.21,4.07,4.07,0,0,0-2.08-.54,9.61,9.61,0,0,0-3.51.91,11,11,0,0,1-1.55.55,10.25,10.25,0,0,1-2.07.22,6.26,6.26,0,0,1-5.14-2.3c-1.33-1.74-1.65-4.24-.9-7a9,9,0,0,0,.19-1c0-.08,0-.16,0-.24,6.18-10.21,5.94-21.28,5.7-32l0-1.67c-.08-3.92-.06-7.85,0-12,0-2,0-3.95,0-6v-3.8L387.58,252l-18.4,5.44c-13.7,4-26.65,7.87-39.79,11.81l-8.73,2.61c-18.81,5.63-38.25,11.44-57.31,17.42a17.41,17.41,0,0,1-5.29.81,31.72,31.72,0,0,1-9.12-1.67c-15-4.56-30.36-9.11-45.17-13.52l-15.69-4.67-2.36-.67-5.11-1.44v89.68l2.31.43a403.45,403.45,0,0,0,73.93,6.83,441.37,441.37,0,0,0,74.57-6.54l2.35-.41V346.56q0-5.23,0-10.45c0-9.94,0-20.22.05-30.33a23.48,23.48,0,0,1,.89-7.25c1-3,2.7-4.26,5.62-4.26a13.18,13.18,0,0,1,2.25.21c2.87.5,4.39,2.46,4.52,5.83.19,4.68.16,9.48.14,14.13,0,1.75,0,3.49,0,5.23q0,5.36,0,10.71c0,10.16,0,20.67,0,31-.06,7.07-1.05,8.22-8.17,9.45-16.48,2.84-32.71,4.66-46.41,6.06A310.34,310.34,0,0,1,260.43,378.25Zm-3.15-170.32a27,27,0,0,0-8,1.28c-16,4.91-32.25,9.7-48,14.33q-12.06,3.55-24.12,7.12c-5.72,1.7-11.29,3.45-17.19,5.31l-8.06,2.52-4.11,1.28,2.8,3.27c.32.37.55.68.73.94a4.48,4.48,0,0,0,2.34,1.9l32.09,9.48c21.5,6.34,43.74,12.9,65.57,19.45a20.33,20.33,0,0,0,5.92.9,24.49,24.49,0,0,0,7.33-1.23c9.36-2.88,18.95-5.65,28.22-8.32,6.33-1.83,12.89-3.72,19.32-5.63,11.82-3.52,23.81-7.17,35.4-10.71l15.32-4.67,2.14-.65-.34-5.58-1.86-.59-2.2-.7c-1.59-.51-3.17-1-4.77-1.49L331.54,229c-21.76-6.43-44.26-13.08-66.33-19.8A26.91,26.91,0,0,0,257.29,207.93Z"/><path class="cls-1" d="M230.87,110.8a6.66,6.66,0,0,1-4.83-1.87,6.74,6.74,0,0,1-1.78-5c0-3,1.32-4.88,4-5.85C231.43,97,234.71,96,237.87,95c1.45-.44,2.89-.88,4.33-1.33l9.25-2.92c8.74-2.76,17.77-5.61,26.67-8.36a37.62,37.62,0,0,1,5.81-1.18,5.11,5.11,0,0,1,.72-.05c3.67,0,5.64,4.41,6,5.3.69,1.7-.63,5.12-3.3,6.81a15.4,15.4,0,0,1-3.6,1.42l-.83.26-9.33,2.95c-13,4.11-26.45,8.37-39.7,12.44A10.29,10.29,0,0,1,230.87,110.8Z"/><path class="cls-1" d="M117.06,111.11a9.51,9.51,0,0,1-2.78-.47c-9.36-2.89-18.85-5.94-28-8.89Q78.84,99.38,71.43,97c-1.28-.41-2.56-.75-3.81-1.08A48.12,48.12,0,0,1,62,94.18C58.1,92.6,56.21,88.64,57.58,85c.64-1.72,2.11-3.7,7.83-3.7h.34l2.38.74c2.58.81,5.71,1.79,8.85,2.75l14.81,4.5q11.46,3.48,22.92,7a31.31,31.31,0,0,1,4.72,1.83,8.06,8.06,0,0,1,3.74,4.69,5.07,5.07,0,0,1-.07,3.85C120.92,110.6,118.72,111.11,117.06,111.11Z"/><path class="cls-1" d="M232,155.83c-5.55-.17-6.93-2.22-7.54-4.21a6.64,6.64,0,0,1,3.15-7.85,16.82,16.82,0,0,1,3.6-1.44l5.81-1.81c14.47-4.51,29.42-9.18,44.16-13.68a11,11,0,0,1,3.16-.53c1.72,0,4.21.48,5.85,4.67.91,2.32,1.47,5.69-4.16,8.08A137.14,137.14,0,0,1,273,143.59l-1.45.45c-11.09,3.44-22.4,6.84-33.34,10.14l-1.78.54c-1.45.44-2.95.79-3.94,1Z"/><path class="cls-1" d="M116.95,156.1l-1.71-.33a31.75,31.75,0,0,1-3.46-.77q-21.21-6.59-42.39-13.27l-5.14-1.61a23.46,23.46,0,0,1-2.8-1c-3.67-1.69-5.27-5.2-3.91-8.53a7.49,7.49,0,0,1,6.76-4.35,6.44,6.44,0,0,1,1.88.28C75,129.2,83.95,132,92.6,134.67q12.61,3.92,25.24,7.81a8.26,8.26,0,0,1,5.57,5.35c.53,2-.1,4-1.86,5.82a11.11,11.11,0,0,1-3.57,2Z"/><path class="cls-1" d="M90.63,196.3a7.49,7.49,0,0,1-2-.3c-8.92-2.54-18.23-5.55-27.66-9-3.46-1.25-4.39-5-3.52-8a7.32,7.32,0,0,1,6.66-4.87,5.25,5.25,0,0,1,1.47.21C71.71,176.2,78,178.26,84,180.26q3.79,1.25,7.59,2.49c3.81,1.23,5.27,3.13,5.06,6.56v.16C96.61,193.49,94.14,196.3,90.63,196.3Z"/></g></g></g></svg>