<svg xmlns="http://www.w3.org/2000/svg" viewBox="0 0 402.75 402.69"><defs><style>.cls-1{fill:#f05253;}</style></defs><title>healthcare</title><g id="Layer_2" data-name="Layer 2"><g id="Layer_1-2" data-name="Layer 1"><g id="Kdhihc"><path class="cls-1" d="M129.42,402.68c-12.91,0-25.8,0-38.29-.09-9.56,0-13.87-4.41-14-14.15,0-4.38,0-8.82,0-13.12,0-6.18.08-12.57-.11-18.83-.23-7.46,2.8-12,9.23-14-.35-3.37-2.29-5.62-5.05-7.88-8.39-6.86-16.87-13.9-25.07-20.71-13-10.82-26.51-22-40-32.75C5.25,272.48,0,261.7,0,248.24q0-17.15,0-34.3c0-15.76,0-32.06.08-48.09a53.67,53.67,0,0,1,2-12.74c2.27-8.92,8.39-14.14,17.22-14.69q.81,0,1.61-.05c7.76,0,13.78,3.5,17,9.86A65.36,65.36,0,0,1,43.43,165c1.62,8.31,3,16.79,4.32,25,.74,4.6,1.51,9.36,2.32,14a28.63,28.63,0,0,0,1.22,4.23l.38,1.14a26.36,26.36,0,0,1,9.23-1.81c6.18,0,11.65,2.65,17.21,8.33a131,131,0,0,0,15,12.47c2.42,1.82,4.92,3.71,7.33,5.64a36.67,36.67,0,0,0,13.8,7.18,56.17,56.17,0,0,1,22.69,12c4.42,3.83,9.14,7.49,13.71,11l2.08,1.61c10.41,8.08,16.05,19.46,17.25,34.79.43,5.47,1,11,1.49,16.4.43,4.39.87,8.93,1.25,13.41.18,2.17.28,4.65-.89,6.43a8.22,8.22,0,0,1-6,3.3h-.11c-2.05,0-4.15-2.43-4.82-4.12a30.06,30.06,0,0,1-1.83-8l-.35-3.34c-.78-7.44-1.59-15.13-2-22.73-.61-11.76-5.1-20.58-13.73-27-2.18-1.61-5-3.76-7.68-6.14-9.75-8.73-19.6-14.26-30.13-16.92a25.11,25.11,0,0,1-9-4.73c-4.39-3.48-8.78-7.1-13-10.6C77.33,232,71.36,227,65.34,222.42a7.86,7.86,0,0,0-4.77-1.72c-3.85,0-7,3-7.75,7.36-.47,2.84.59,5.13,3.53,7.65,4,3.4,8.06,6.79,12,10.08q4,3.33,8,6.68l2.19,1.83c3,2.47,6,5,8.85,7.8,1.73,1.71,3.41,3.55,3.19,5.69s-2.1,3.75-6,6.26l-.9.58-.91-.56c-.53-.33-1.1-.64-1.67-1a26.46,26.46,0,0,1-4.08-2.62c-9.19-7.59-18.46-15.39-27.42-22.93l-1.55-1.31c-7.71-6.49-10.38-13.71-8.14-22.05a10.36,10.36,0,0,0-.19-4c-3.25-19.46-6.3-37.49-9.33-55.19l-.07-.43a44,44,0,0,0-1.8-7.72,9.19,9.19,0,0,0-8-5.86,5.43,5.43,0,0,0-.77.05c-3.36.49-6.51,4-7,7.92a45.68,45.68,0,0,0-.22,6.21v.33q.12,14.1.26,28.19c.17,17.76.35,36.13.44,54.19.05,9.61,3.82,17.06,11.85,23.45,22.26,17.71,44.47,36.24,65.95,54.17l1.4,1.17c2.29,1.91,3.74,4.79,5,7.33l.54,1.06a43.85,43.85,0,0,1,2.32,5.8c.21.6.42,1.23.65,1.87h8.85c5.38,0,10.76,0,16.14.07s10.75.07,16.12.07c9.21,0,16.72-.1,23.64-.33h.89c9.49,0,14.53,5.19,14.57,15l0,5.88c0,7.93.09,16.13-.06,24.21-.2,10.73-4.52,14.92-15.41,15C153.51,402.66,141.28,402.68,129.42,402.68ZM103.6,389.31q7.88,0,15.73,0t15.63,0c8.91,0,20.55,0,32.55-.35V356.5H91v32.85Q97.31,389.31,103.6,389.31Z"/><path class="cls-1" d="M272.83,402.69c-12.82,0-25.34,0-37.2-.11-9.75-.06-14.21-4.35-14.46-13.92-.29-11.08-.29-21.87,0-32.07.28-9.64,4.56-13.77,14.29-13.81q11.67-.05,23.35,0h42l.59-.61.4-.42c2-9.57,8.22-15.62,14.62-20.74,9.86-7.88,19.76-16.06,29.33-24,10.24-8.46,20.82-17.2,31.39-25.62,8.4-6.69,12.11-14.18,12-24.3-.13-15.72,0-31.7,0-47.15.06-10.9.12-22.16.1-33.24,0-4.58-.54-8-1.66-10.6-1.22-2.88-3.46-4.59-6-4.59-2.33,0-4.55,1.42-6.11,3.89a16.26,16.26,0,0,0-2,5.71c-1.83,9.78-3.63,19.75-5.38,29.38Q367,197,365.82,203.57c-.08.46-.16.93-.23,1.41a20,20,0,0,1-1.08,4.56,39.59,39.59,0,0,0-2.5,20c.77,6.22-1.44,11.42-6.77,15.89-9.5,8-19.19,16.06-28.56,23.87l-1.91,1.59a16.64,16.64,0,0,1-1.68,1.19c-.28.18-.55.35-.82.54a6.87,6.87,0,0,1-4,1.36,6.78,6.78,0,0,1-5.13-2.66c-2.21-2.58-1.88-5.87.83-8.38,3.41-3.16,7.12-6.43,11.68-10.3,2.47-2.1,5-4.19,7.46-6.21,4.39-3.62,8.93-7.37,13.2-11.23,3.79-3.42,4.32-6.47,1.89-10.88-1.39-2.52-3.25-3.8-5.53-3.8a8,8,0,0,0-2.94.62,25.21,25.21,0,0,0-6,3.88l-3.29,2.63c-7.3,5.85-14.85,11.9-22,18.1a33.59,33.59,0,0,1-14.17,7.51,48.69,48.69,0,0,0-22,11.71,129.92,129.92,0,0,1-10.69,8.55l-2.34,1.75c-8.35,6.27-12.75,14.82-13.45,26.13-.48,7.74-1.26,15.57-2,23.14l-.38,3.87a21.66,21.66,0,0,1-.73,3.49c-.21.79-.41,1.54-.54,2.28-.92,5.4-4.41,6.21-6.41,6.21h-.36a5.71,5.71,0,0,1-3.95-2.11,8.75,8.75,0,0,1-2.19-6.26c.39-4.61.91-9.12,1.33-12.53.43-3.57.89-7.14,1.35-10.71.67-5.27,1.37-10.71,2-16.07,1.14-10,6.14-18.63,15.3-26.34,1.88-1.59,3.83-3.15,5.71-4.66,2.32-1.87,4.72-3.79,7-5.76A81.13,81.13,0,0,1,291,240c4.55-1.44,8.78-4.67,12.88-7.79l.45-.35c5.58-4.26,11.44-9.17,18.43-15.47,6.38-5.74,12.78-8.53,19.58-8.53a28.43,28.43,0,0,1,8.37,1.33q.53-2.23,1.07-4.39c1.08-4.39,2.1-8.53,2.87-12.74.95-5.17,1.81-10.46,2.64-15.58,1-6.08,2-12.37,3.19-18.53a32.21,32.21,0,0,1,4.2-10.3,18.58,18.58,0,0,1,16.49-9.31q.71,0,1.43,0c8.4.54,14.66,5,17.19,12.19a42.45,42.45,0,0,1,2.8,13.66c.2,22.15.31,42.1-.37,62.05-.14,4.08,0,8.23,0,12.25.08,3.44.15,7,.09,10.52-.24,13-5.26,23.29-15.33,31.38-19,15.29-38.17,31.16-56.66,46.5L325,331.43c-.59.49-1.2,1-1.81,1.46-3.26,2.59-6.36,5-7.14,9.08.54.38,1.11.74,1.71,1.13,2.2,1.41,4.47,2.87,5.71,5.13,1.62,2.93,1.66,6.68,1.7,10v1.07c.16,8.77.17,18.3,0,29.13-.12,9.76-4.42,14.13-13.94,14.18C297.64,402.66,285.07,402.69,272.83,402.69Zm38.89-13.75v-5.29c0-9.21,0-17.91-.05-26.65a4.14,4.14,0,0,0-.39-.7c-10.67-.49-23.13-.75-35.21-.75-19.81,0-36,.71-41.72,1.79q0,1.89,0,3.8c0,3.94,0,8,0,12s.14,7.8.25,11.91q0,1.91.1,3.86Z"/><path class="cls-1" d="M204.79,175.92a6,6,0,0,1-5.13-3,25.88,25.88,0,0,1-2.37-5.83l-.24-.76c-4.14-13-8.25-25.93-12.69-39.94l-2.43-7.66-.38,1.76c-1.13,5.23-2.11,9.74-3.43,14.2a34.19,34.19,0,0,0-.95,5.26c-.67,5.15-1.42,11-8,14.47l-.86.46-.83-.52c-4.6-2.86-6.73-7.13-8.79-11.27-.58-1.16-1.13-2.26-1.73-3.33-1.85-3.29-3.6-6.6-5.44-10.1l-2.05-3.88H88.22c-.57,0-1.14,0-1.71,0l-.86,0h0c-1.6,0-6.42,0-7.68-5.23a5.21,5.21,0,0,1,.89-4.2,10,10,0,0,1,6.86-3.82,15.3,15.3,0,0,1,2-.11l1.1,0h1.17q8.16,0,16.32,0t16.31,0c10.32,0,18.69-.06,26.33-.2h.46c6.27,0,10.11,2.43,12.46,7.88,1,2.35,2.29,4.67,3.53,6.92l.71,1.29,1.39-6.55q2.44-11.57,4.91-23.13c.13-.61.25-1.23.37-1.85a31.92,31.92,0,0,1,1.9-6.87c.82-1.84,3.29-4.42,5.47-4.42h.28c2.37.23,5.55,2,6.51,4.36,1.79,4.35,3.16,8.9,4.48,13.31q.5,1.67,1,3.33c2.64,8.62,5.26,17.25,8,26.21l2.42,8a1.36,1.36,0,0,0,.07-.26c2.69-17.38,5.36-35.07,7.94-52.17l2.35-15.53c0-.21.05-.43.07-.65a5.73,5.73,0,0,1,.85-2.89c.24-.34.49-.7.73-1.07,1.13-1.69,2.42-3.62,4.38-4.22a5.74,5.74,0,0,1,1.7-.26c2.74,0,5.13,2.17,6.1,5.52,1.56,5.4,2.9,10.95,4.19,16.31L232,89c1.91,7.85,3.79,15.7,5.73,23.79L239.9,122h42.53l27.11,0h2.68a13.18,13.18,0,0,1,5.61.94c2.24,1,3.89,4.35,4,6.67s-3,4.67-4.74,5.35a8.62,8.62,0,0,1-3.17.51c-.56,0-1.13,0-1.7-.06s-1-.06-1.5-.06H297.95l-33.5,0-24.53,0c-9.54,0-10.9-1.11-13.25-10.7-1.46-6-2.91-12-4.51-18.6l-.34-1.42-1.18,7.29c-2.08,12.81-4,24.9-6,37-.37,2.34-.69,4.75-1,7.08-.4,3-.8,6.13-1.35,9.19A25,25,0,0,1,209.7,173,5.59,5.59,0,0,1,204.79,175.92Z"/><path class="cls-1" d="M309.33,113.81a6,6,0,0,1-2.39-.51c-3.78-1.62-5.34-4.71-4.18-8.25.66-2,1.43-4,2.17-5.94.52-1.35,1-2.7,1.52-4.06,5.63-15.81,6.44-29.69,2.45-42.41C302.7,32.84,289,20.52,267,15a49,49,0,0,0-12-1.57c-15.06,0-27.62,7.5-42,25.08-.78,1-1.47,2-2.2,3.07-.35.53-.7,1.05-1.07,1.57-3.24,4.63-5.53,7.14-8.35,7.15s-5-2.33-8.19-6.62a183.2,183.2,0,0,0-13-15.35c-9.14-9.72-20.68-14.86-33.35-14.86-12.11,0-24.57,4.61-35.07,13C94.54,40.22,88.7,58.82,93.49,84.95a82.78,82.78,0,0,0,3.3,11.81c.86,2.5.94,6-3.57,8.4a6.09,6.09,0,0,1-2.88.78c-2.45,0-4.6-1.77-5.63-4.61-.29-.81-.59-1.61-.88-2.42-1.83-5-3.73-10.16-4.29-15.49C78.46,73.25,77.59,61.46,81,50.1c7.61-25.65,25.27-41.9,52.52-48.29A64.22,64.22,0,0,1,148.1,0c17.9,0,33.5,8.18,47.71,25,1.53,1.81,3.14,3.59,4.7,5.31l.9,1,2.88-3.18c2.92-3.23,5.67-6.28,8.6-9.25C225.28,6.37,239.47,0,255.08,0A64.64,64.64,0,0,1,271,2.08c26.33,6.71,43.46,22.77,50.92,47.72,4.45,14.9,3.65,30.73-2.44,48.4A116.57,116.57,0,0,1,314.77,110,6.08,6.08,0,0,1,309.33,113.81Z"/><path class="cls-1" d="M201.46,218.93a15.1,15.1,0,0,1-8.25-2.77c-3.19-2.06-6.06-3.93-8.9-5.93C165,196.63,139.7,178.39,116.14,158A143.41,143.41,0,0,1,103,144.83a10,10,0,0,1-2.1-7.44c.26-1.67,1.71-2.73,3.11-3.75a17,17,0,0,0,1.37-1.07l1.11-1,1.14,1c4.73,4,9.45,8.17,14,12.15,10.26,9,20.87,18.23,31.68,26.71,10.62,8.33,21.51,16,33.05,24.08,4.71,3.31,9.58,6.72,14.44,10.2,28.85-17.56,54.32-38.79,81.26-61.25l4.21-3.51,1.06.7c.54.36,1,.65,1.47.92a11.83,11.83,0,0,1,2.56,1.87,11.6,11.6,0,0,1,1.73,2.64c.24.46.51,1,.84,1.52l.66,1.13-.92.93c-.93.94-1.83,1.9-2.72,2.85a78.37,78.37,0,0,1-6.13,6.06A853.54,853.54,0,0,1,210,215.94,15.13,15.13,0,0,1,201.46,218.93Z"/></g></g></g></svg>