<svg xmlns="http://www.w3.org/2000/svg" viewBox="0 0 350.55 216.49">
<style>.cls-1{fill:#FFFFFF;}</style>
<title>heart donation</title>
<g id="Layer_2" data-name="Layer 2">
<g id="Layer_1-2" data-name="Layer 1">
<g id="NpVIu8">
<path  class="cls-1" d="M133,53c3.51-2.32,6.46-4.14,9.27-6.16,8.51-6.14,17.25-11.85,27.15-15.54,22.41-8.36,42.37-3.65,60.15,11.67a64.76,64.76,0,0,1,16.06,20.79,12.27,12.27,0,0,1,.57,1.35c0,.12-.07.3-.24,1-1.6-.84-3.15-1.58-4.61-2.46C229.2,56.26,216,52.8,201.86,54.42A59.91,59.91,0,0,0,168.78,69.3a67.81,67.81,0,0,0-22,64.73c3.67,18.43,13.69,32.87,28.11,44.54,1.16.94,2.22,2,3.68,3.31a25.32,25.32,0,0,1-3.13,2.43c-17.66,9.59-35.49,18.82-54.28,26A180.17,180.17,0,0,1,102.64,216a12.07,12.07,0,0,1-11.28-2.46c-5.4-4.67-10.83-9.36-15.8-14.48-12.89-13.26-24.17-27.88-35.17-42.73-9.21-12.43-17.7-25.33-25.63-38.61C7.63,105.83,2.25,93.09.6,79.27-1.19,64.16.9,49.42,8.5,35.88,19,17.15,34.56,5.17,55.84,1.19,68-1.09,80-.25,91.35,5.12a55.4,55.4,0,0,1,13.86,9.6c8.42,7.75,14.63,17.17,20.35,27,1.26,2.15,2.5,4.31,3.86,6.4C130.39,49.58,131.55,51,133,53Z"/>
<path  class="cls-1" d="M251.59,90.05C255,84.62,258,79.87,261,75.1A60.52,60.52,0,0,1,276.08,58c8.87-6.59,18.87-8.71,29.66-7.43A50.75,50.75,0,0,1,345.36,79c5.24,10.64,6.16,21.79,4.32,33.46-1.75,11.12-6.76,20.77-12.53,30.08a355.38,355.38,0,0,1-42.35,56c-3.07,3.28-6.39,6.33-9.69,9.39-4.19,3.89-9.07,4.6-14.35,2.67-7.62-2.79-15.44-5.17-22.78-8.57-19.46-9-38.39-19-56.08-31.29-8.43-5.84-15.88-12.65-21.43-21.3a51.2,51.2,0,0,1-8.28-31.21c.91-16.28,7.92-29.32,20.91-39a45.11,45.11,0,0,1,23.47-8.77c4.36-.37,8.57.57,12.76,1.68,9.66,2.55,17.92,7.73,25.87,13.53C247.08,87,249,88.25,251.59,90.05Z"/></g></g></g></svg>