<svg xmlns="http://www.w3.org/2000/svg" viewBox="0 0 506.38 276.7"><defs><style>.cls-1{fill:#f05253;}</style></defs><title>meals</title><g id="Layer_2" data-name="Layer 2"><g id="Layer_1-2" data-name="Layer 1"><g id="NHmw28"><path class="cls-1" d="M367.24,276.7c-6.53-.05-13.63-.08-22.35-.08l-14.83,0-14.83,0H224.9c-34,0-60.1,0-84.62.06h-.14a68.1,68.1,0,0,1-30.35-6.78c-12.79-6.19-23-16-30.27-29Q73,229.14,66.39,217.4c-5.55-9.91-14.26-16.38-25.88-19.23a22.27,22.27,0,0,0-5.08-.59c-5.81-.07-11.63-.09-17.44-.12l-7.7,0-1.47,0H8.17c-3.81,0-6.36-1.19-8.17-3.85v-4.31c1.73-2.37,4.08-3.34,7.9-3.34h.18c9.84.08,19.87.09,29.24.09H49.67c8.41,0,17.43,0,26.38.07h.16a14.33,14.33,0,0,0,11.14-4.61c5.25-5.45,10.73-10.89,16-16.15q4.15-4.12,8.28-8.25c3.9-3.92,7.35-6.1,11.2-7.06a29.24,29.24,0,0,1,7.06-.93,20.89,20.89,0,0,1,13.15,4.51c.68.52,1.36,1,2.08,1.47l1.07.73,2,1.41,8-8.61-2.07-1.93-2.12-2c-1.54-1.45-3.13-3-4.75-4.4Q137,131.07,126.6,121.88L105,102.68,79,79.56q-9.7-8.62-19.36-17.28C51.33,54.82,43.1,47.39,35.16,40.2c-4.23-3.84-6.62-7.31-7.75-11.28C24.64,19.17,28,9.64,36.22,4a22.4,22.4,0,0,1,12.6-4,20.89,20.89,0,0,1,13.6,5.08,98.43,98.43,0,0,1,9.41,9.57l1.43,1.59c4.51,5,9,10.12,13.42,15.08q3.89,4.4,7.79,8.8,16.47,18.51,33,37L134,84.49l12.31,13.79,7.13,8L175.56,131a9.5,9.5,0,0,0,1.09,1l.55.47,1.61,1.4,1.79-1.15c.28-.18.58-.36.89-.53a15.42,15.42,0,0,0,2.61-1.79c4.76-4.26,9.89-6.33,15.68-6.33a30.65,30.65,0,0,1,9.31,1.59l1.33.43,1.15-.8.72-.47a18.52,18.52,0,0,0,2.5-1.82,30.94,30.94,0,0,1,20.81-7.92,31.6,31.6,0,0,1,26.65,14.51c.33.5.69,1,1.14,1.56l.7.93.85,1.14h1.42l2.49,0,2.7,0c1.63,0,3,0,4.22-.12a8.7,8.7,0,0,0,5.25-2.29,21.93,21.93,0,0,1,16-6.77c.85,0,1.73,0,2.61.13.48,0,1,.07,1.41.07a11,11,0,0,0,7.91-3.32,21.49,21.49,0,0,1,14.81-5.87,23.93,23.93,0,0,1,16.43,6.73,8.61,8.61,0,0,1,1,1.08,6.92,6.92,0,0,0,5.74,3.29,8.11,8.11,0,0,0,3.31-.77c2.52-1.13,5.29-1.26,8.65-1.32h.7c11,0,19.7,4.67,26.51,14.28.43.61.89,1.19,1.29,1.7l.42.53.81,1,1.32.05c.95,0,1.87.06,2.77.08,1.8,0,3.5.08,5.13.26,8.18.89,14.09,5.26,18.05,13.35a11.71,11.71,0,0,0,6,6,22.41,22.41,0,0,1,13,15.4,37.52,37.52,0,0,1,.72,4.06c.11.79.23,1.62.37,2.5l.37,2.27,2.3.1,1.65.09c1.23.07,2.5.14,3.78.14H498.2a30.07,30.07,0,0,1,3.51.15,5.36,5.36,0,0,1,.64,10.51,27.22,27.22,0,0,1-5.78.71c-2,0-3.92,0-5.88,0h-8c-3,0-6.52,0-10.17.13-13.68.42-24.32,6.58-31.62,18.33-2.37,3.81-4.54,7.78-6.65,11.62-1.15,2.09-2.29,4.19-3.47,6.26l-1.33,2.35c-1.8,3.18-3.66,6.47-5.64,9.55a66.55,66.55,0,0,1-38.72,28.63,62.9,62.9,0,0,1-17.34,2.42ZM69.73,202c.84,1.29,1.67,2.51,2.47,3.7,1.65,2.44,3.2,4.74,4.56,7.09,3.64,6.29,7.23,12.76,10.7,19l2.2,4a56.25,56.25,0,0,0,24.51,23.67c8,4,16.87,5.88,27.13,5.88h.12c37.91-.06,75.93-.06,104.81-.06H355.11c4,0,9.37,0,14.77-.16a50.68,50.68,0,0,0,11.4-1.71c15.58-4.06,27.54-13.49,35.56-28,3.93-7.13,8.39-15.21,12.9-23,1.33-2.3,2.87-4.53,4.5-6.89.78-1.14,1.58-2.3,2.39-3.51l2.94-4.41H66.85ZM236.1,160.4a14.06,14.06,0,0,0-8.58,3.41l-2.53,2,5.25,5.23c2.31,2.31,4.62,4.61,7,6.88.64.62,1.27,1.33,1.95,2.07,1.84,2,3.92,4.35,6.71,5.42a14.94,14.94,0,0,0,5.46.86c1.09,0,2.18-.06,3.23-.13s2-.12,2.89-.12h.24a4.58,4.58,0,0,0,1.63-.33l.5-.17,4.57-1.36L261,180.78q-2.63-2.61-5.2-5.22c-4-4-8.12-8.19-12.34-12.11A10.61,10.61,0,0,0,236.1,160.4Zm-1-11.29a27.84,27.84,0,0,1,6.68.86c4,1,7.59,3.18,11.3,6.88l4.08,4.05c6.91,6.86,14,14,20.94,21a12.76,12.76,0,0,0,9.82,4.16c27.07-.07,53.9-.08,76.58-.08h58.18l.68-1.86a8.28,8.28,0,0,0-1.49-8.65c-2.77-3.47-6.57-4.45-9.57-4.92-3.35-.52-4.71-1.9-5.42-5.49A31,31,0,0,0,406,162c-1.69-5.53-5.64-8.72-10.84-8.77h0a20,20,0,0,0-6.83,1.56l-.32.12a10.29,10.29,0,0,1-3.39.7c-1.49,0-3.23-.48-4.87-4-.25-.54-.47-1.15-.7-1.79l-.28-.78a20.59,20.59,0,0,0-19.43-13.63,20.07,20.07,0,0,0-11.53,3.56l-1.1.79c-.7.51-1.36,1-2,1.38a6.87,6.87,0,0,1-3.5,1.07c-2.35,0-4.25-1.52-5.21-4.16-.17-.48-.32-1-.47-1.58a22,22,0,0,0-.7-2.28,11.57,11.57,0,0,0-20.14-3.06,18.47,18.47,0,0,0-1.5,2.34,12.14,12.14,0,0,1-1.13,1.76,9.41,9.41,0,0,1-2.63,2.38,5.23,5.23,0,0,1-2.13.45,8.21,8.21,0,0,1-3.26-.78,18.16,18.16,0,0,0-7.21-1.8c-5.42,0-8.46,3.94-10.5,7.38s-3.77,4-5.11,4a10.28,10.28,0,0,1-3.85-1,16.47,16.47,0,0,0-6.52-1.44,14,14,0,0,0-2.35.2,23.37,23.37,0,0,0-4.56,1.42l-.68.26a5.77,5.77,0,0,1-2.07.38,5.19,5.19,0,0,1-5-3.32l-.41-1.12c-.38-1.06-.77-2.15-1.27-3.24a20.68,20.68,0,0,0-18.83-12.52,21.91,21.91,0,0,0-7,1.19c-5.22,1.77-8.31,5.5-11.3,9.11l-.15.18c-2.19,2.65-3.77,3-4.76,3a8.34,8.34,0,0,1-4.2-1.5c-.94-.58-1.91-1.13-2.87-1.67l-1.27-.72-3.79,4a49.71,49.71,0,0,0,7.34,8.37c.82.8,1.62,1.62,2.42,2.43,1.61,1.64,3.27,3.34,5.1,4.89l1.77,1.5,3.75-3A22.32,22.32,0,0,1,235.08,149.1Zm-52.71-4.85a13.24,13.24,0,0,0-9,3.82c-3.68,3.4-7.13,6.91-10.79,10.63-1.59,1.61-3.2,3.26-4.86,4.92l-2,2,6.46,6.45c4,3.95,7.74,7.71,11.5,11.51a8,8,0,0,0,6,2.46c7.53,0,15,0,22.55,0h24.39l-2.37-4.22c-.1-.18-.18-.34-.25-.48a5.57,5.57,0,0,0-1.06-1.6l-7-7c-8-8-16.24-16.3-24.44-24.38A13,13,0,0,0,182.37,144.26Zm-53.08,16.21a14.45,14.45,0,0,0-2.19.17c-3.43.53-5.74,2.53-7.81,4.53-2.67,2.58-5.32,5.25-7.89,7.84l-2.75,2.76L105.45,179l-6.66,6.75h56.74l-.8-3.47c0-.12,0-.23-.05-.32a3.7,3.7,0,0,0-1-2.21l-3-3.08c-4.06-4.12-8.26-8.39-12.48-12.51A12.54,12.54,0,0,0,129.29,160.46ZM48.8,11.52a10.77,10.77,0,0,0-6.6,2.25A11.27,11.27,0,0,0,37.77,22c-.09,2.31.59,5.8,4.34,9.31,5.13,4.8,10.46,9.53,15.61,14.1l2.23,2Q70.68,57,81.42,66.48q14.27,12.66,28.53,25.34,10.33,9.21,20.61,18.48l12.07,10.85a13.86,13.86,0,0,0,1.5,1.14l.51.36,2.12,1.54,2.07-2.43,1.58-1.86L146,114.83c-2.07-2.38-4.15-4.76-6.25-7.11q-20.58-23.1-41.19-46.18l-1.21-1.35C84.44,45.74,71.11,30.81,58,16.16a17.46,17.46,0,0,0-4.16-3.32A9.84,9.84,0,0,0,48.8,11.52Z"/><path class="cls-1" d="M297.52,170.6a6.49,6.49,0,0,1-4.34-2.13,4.31,4.31,0,0,1-1.25-3.25l0-.24,0-.24a4.41,4.41,0,0,1,1.26-3.34,6.51,6.51,0,0,1,4.37-2.13c2.7,0,5.62,3,5.64,5.65s-2.9,5.58-5.58,5.67Z"/><path class="cls-1" d="M359.11,170.59a5.36,5.36,0,0,1-5.21-5.65,5.83,5.83,0,0,1,5.55-5.66h.12c2.59.07,5.43,3.07,5.41,5.73a5.91,5.91,0,0,1-5.73,5.59Z"/><path class="cls-1" d="M324,161.67c-2.93-.16-5.77-2.84-5.75-5.41s3.16-5.87,5.59-5.87h.11A6,6,0,0,1,329.4,156v.21a4.71,4.71,0,0,1-1.33,3.59,5.69,5.69,0,0,1-3.91,1.86Z"/></g></g></g></svg>